
<svg width="207" height="38" viewBox="0 0 207 38" fill="none" xmlns="http://www.w3.org/2000/svg">
<g clip-path="url(#clip0_470_6566)">
<path d="M127.538 0.5V10.1045C125.627 8.96108 123.716 8.27502 121.534 8.27502C115.567 8.27502 110.843 13.0811 110.843 18.9161C110.843 24.7512 115.514 29.5611 121.484 29.5611C127.454 29.5611 132.125 24.7551 132.125 18.9161V0.5H127.538ZM121.499 24.8694C118.17 24.8694 115.418 22.2358 115.418 18.9161C115.418 15.5965 118.174 12.9629 121.499 12.9629C124.825 12.9629 127.469 15.5965 127.469 18.9161C127.469 22.2358 124.828 24.8694 121.499 24.8694Z" fill="black"/>
<path d="M95.4056 28.6845V16.6674C95.4056 14.3807 97.3586 12.4331 99.6521 12.4331C102.064 12.4331 104.013 14.3807 104.013 16.6674V28.6845H108.718V16.7818C108.718 11.8614 104.701 7.74142 99.6521 7.74142C94.7174 7.74142 90.5859 11.8614 90.5859 16.7818V28.6845H95.4056Z" fill="black"/>
<path d="M71.8223 18.5007C71.8223 20.4444 72.3954 21.9347 73.4274 23.078C74.4597 24.1071 75.8392 24.6788 77.6739 24.6788C79.394 24.6788 80.7739 24.1071 81.9167 22.9637C82.9487 21.8203 83.4113 20.3339 83.4113 18.3863C83.4113 16.6713 82.9487 15.2954 81.8058 14.152C80.6552 13.0048 79.2794 12.4369 77.6739 12.4369C75.9539 12.4369 74.5744 13.0086 73.4274 14.152C72.3954 15.2954 71.8223 16.7818 71.8223 18.5007ZM66.8877 18.5007C66.8877 17.1248 67.1132 15.7566 67.6904 14.495C68.2639 13.123 68.9516 11.9757 69.984 10.9467C71.0196 9.91764 72.1625 9.11729 73.4274 8.65993C74.8036 8.08824 76.0648 7.74521 77.5593 7.74521C78.9355 7.74521 80.3113 8.08824 81.5766 8.5456C82.8378 9.00296 83.9881 9.80331 85.0204 10.7219C86.167 11.7509 86.9697 12.8943 87.5465 14.2702C88.12 15.6422 88.4638 17.0181 88.4638 18.3901C88.4638 19.9909 88.12 21.4811 87.6615 22.7388C87.1989 23.9966 86.3962 25.1399 85.3643 26.1728C84.3323 27.3162 83.1858 28.1166 81.9205 28.5739C80.5447 29.1456 79.1685 29.3743 77.563 29.3743C76.0689 29.3743 74.6927 29.1456 73.4315 28.5739C72.1662 28.0022 70.905 27.2019 69.8731 26.1728C68.9557 25.0256 68.153 23.8822 67.6941 22.6245C67.1173 21.3668 66.8918 19.9909 66.8918 18.5045L66.8877 18.5007Z" fill="black"/>
<path d="M64.7669 30.5177C64.3043 32.1184 63.6166 33.38 62.6993 34.409C60.9792 36.4671 58.682 37.5 55.5861 37.5C53.4035 37.5 51.4542 36.9283 49.9597 35.7849C48.4692 34.5272 47.3227 32.8083 46.6309 30.5215H50.877C51.2213 31.4362 51.9089 32.2366 52.7158 32.6939C53.6331 33.2656 54.5542 33.4943 55.5861 33.4943C57.3062 33.4943 58.6857 32.9226 59.8327 31.6649C60.0582 31.3219 60.2911 30.9788 60.5204 30.5215H64.7669V30.5177ZM51.4542 7.74142V19.6441C51.4542 22.0452 53.2889 23.9927 55.7007 23.9927C57.9939 23.9927 59.9432 22.049 59.9432 19.6441V7.74142H64.7669V19.5297C64.7669 24.5644 60.635 28.5701 55.7007 28.5701C50.6515 28.5701 46.6309 24.5644 46.6309 19.5297V7.74142H51.4542Z" fill="black"/>
<path d="M39.6131 16.3244C39.2691 14.9524 38.5811 13.9233 37.5492 13.2335C36.6318 12.5474 35.3667 12.2044 33.876 12.2044C32.6147 12.2044 31.4642 12.5474 30.5469 13.3478C29.5149 14.152 28.8269 15.0629 28.4829 16.3244H39.6169H39.6131ZM28.2498 20.1014C28.4791 21.5916 29.0524 22.8493 30.0883 23.6497C31.1203 24.4501 32.3816 24.9075 33.9907 24.9075C35.0227 24.9075 36.0585 24.6788 36.8612 24.2214C37.7785 23.7641 38.3518 23.1924 38.9251 22.392H44.0891C43.1717 24.5682 41.9064 26.2833 40.1865 27.5411C38.4665 28.7988 36.3987 29.3743 34.1015 29.3743C32.6109 29.3743 31.2311 29.1456 29.8551 28.5739C28.5938 28.1166 27.4433 27.3162 26.4113 26.1728C25.494 25.2581 24.6913 23.9966 24.1142 22.7388C23.6555 21.363 23.3115 20.1052 23.3115 18.6188C23.3115 17.2468 23.6555 15.8709 24.1142 14.6131C24.5729 13.3516 25.3755 12.2082 26.2966 11.2935C27.3286 10.1463 28.4753 9.23162 29.8551 8.65993C31.1164 8.08824 32.4962 7.74521 33.8722 7.74521C35.7069 7.74521 37.316 8.20257 38.9213 9.00296C40.412 9.80331 41.7918 10.9467 42.8238 12.4369C43.5119 13.2373 43.9703 14.2663 44.3146 15.4135C44.6584 16.4426 44.7731 17.7003 44.7731 19.0762V20.1052H28.2498V20.1014Z" fill="black"/>
<path d="M10.6409 8.27502C8.3438 8.27502 6.11547 8.96108 4.5866 10.1045V0.5H0V18.9161C0 24.7512 4.67454 29.5611 10.6448 29.5611C16.615 29.5611 21.3163 24.7551 21.3163 18.9161C21.3163 13.0772 16.4927 8.27502 10.6409 8.27502ZM10.6104 24.8694C7.28125 24.8694 4.52545 22.2358 4.52545 18.9161C4.52545 15.5965 7.28125 12.9629 10.6104 12.9629C13.9395 12.9629 16.5768 15.5965 16.5768 18.9161C16.5768 22.2358 13.9357 24.8694 10.6104 24.8694Z" fill="black"/>
<path d="M169.051 8.50372V20.4064C169.051 22.8075 171.004 24.7551 173.298 24.7551C175.709 24.7551 177.659 22.8113 177.659 20.4064V8.50372H182.364V20.292C182.364 25.3268 178.346 29.3324 173.298 29.3324C168.363 29.3324 164.231 25.3268 164.231 20.292V8.50372H169.051Z" fill="black"/>
<path d="M157.352 29.5306V2.40561H162.057V29.5306H157.352Z" fill="black"/>
<path d="M144.711 8.12262C149.761 8.12262 153.892 11.5566 155.039 16.1339H150.105C149.187 14.1902 147.12 12.8143 144.711 12.8143C141.382 12.8143 138.741 15.4479 138.741 18.7676C138.741 22.0872 141.382 24.7208 144.711 24.7208C147.123 24.7208 149.187 23.3449 150.105 21.4011H155.039C153.892 25.9785 149.761 29.4125 144.711 29.4125C138.856 29.4087 134.036 24.6026 134.036 18.7637C134.036 12.9248 138.856 8.12262 144.711 8.12262Z" fill="black"/>
<path d="M195.129 8.27502C192.832 8.27502 190.604 8.96108 189.075 10.1045V0.5H184.488V18.9161C184.488 24.7512 189.163 29.5611 195.133 29.5611C201.103 29.5611 205.805 24.7551 205.805 18.9161C205.805 13.0772 200.981 8.27502 195.129 8.27502ZM195.099 24.8694C191.77 24.8694 189.014 22.2358 189.014 18.9161C189.014 15.5965 191.77 12.9629 195.099 12.9629C198.428 12.9629 201.065 15.5965 201.065 18.9161C201.065 22.2358 198.424 24.8694 195.099 24.8694Z" fill="black"/>
</g>
<defs>
<clipPath id="clip0_470_6566">
<rect width="206.143" height="37" fill="white" transform="translate(0 0.5)"/>
</clipPath>
</defs>
</svg>
