<svg width="524" height="524" viewBox="0 0 524 524" fill="none" xmlns="http://www.w3.org/2000/svg">
<rect width="524" height="524" rx="262" fill="white"/>
<g clip-path="url(#clip0_574_6434)">
<path d="M190.832 207.347C172.519 207.347 154.754 212.832 142.565 221.974V145.186H106V292.423C106 339.074 143.266 377.529 190.862 377.529C238.459 377.529 275.938 339.105 275.938 292.423C275.938 245.741 237.483 207.347 190.832 207.347ZM190.588 340.019C164.048 340.019 142.078 318.963 142.078 292.423C142.078 265.883 164.048 244.827 190.588 244.827C217.129 244.827 238.154 265.883 238.154 292.423C238.154 318.963 217.098 340.019 190.588 340.019Z" fill="black"/>
<path d="M350.54 331.977C339.694 321.13 334.467 308.279 334.467 291.516C334.467 281.655 336.867 272.781 341.797 264.859C345.741 256.971 351.099 251.055 360.959 247.111V207.636C341.271 213.552 325.889 224.399 315.009 239.222C305.149 253.027 299.923 270.809 299.923 292.502C299.923 321.13 309.257 343.842 327.006 359.619C335.881 368.493 344.558 374.41 360.992 378.354V338.879C354.419 336.907 353.498 334.935 350.54 331.977Z" fill="black"/>
<path d="M391.33 317.153C405.167 317.153 417 306.306 417 291.483C416.967 277.645 405.135 266.799 391.33 266.799C377.525 266.799 365.66 277.645 365.66 291.483C365.66 306.274 377.492 317.153 391.33 317.153Z" fill="black"/>
</g>
<defs>
<clipPath id="clip0_574_6434">
<rect width="311" height="311" fill="white" transform="translate(106 106)"/>
</clipPath>
</defs>
</svg>
